<?xml version="1.0" encoding="UTF-8" standalone="no"?>
<!-- Created with Inkscape (http://www.inkscape.org/) -->

<svg
   width="210mm"
   height="297mm"
   viewBox="0 0 210 297"
   version="1.1"
   id="svg5"
   xml:space="preserve"
   inkscape:version="1.2.2 (b0a8486541, 2022-12-01)"
   sodipodi:docname="logos.svg"
   xmlns:inkscape="http://www.inkscape.org/namespaces/inkscape"
   xmlns:sodipodi="http://sodipodi.sourceforge.net/DTD/sodipodi-0.dtd"
   xmlns="http://www.w3.org/2000/svg"
   xmlns:svg="http://www.w3.org/2000/svg"><sodipodi:namedview
     id="namedview7"
     pagecolor="#ffffff"
     bordercolor="#000000"
     borderopacity="0.25"
     inkscape:showpageshadow="2"
     inkscape:pageopacity="0.0"
     inkscape:pagecheckerboard="0"
     inkscape:deskcolor="#d1d1d1"
     inkscape:document-units="mm"
     showgrid="false"
     inkscape:zoom="1.1893044"
     inkscape:cx="156.81435"
     inkscape:cy="461.19395"
     inkscape:window-width="2560"
     inkscape:window-height="1363"
     inkscape:window-x="20"
     inkscape:window-y="20"
     inkscape:window-maximized="0"
     inkscape:current-layer="layer1" /><defs
     id="defs2" /><g
     inkscape:label="Calque 1"
     inkscape:groupmode="layer"
     id="layer1"><path
       style="display:inline;fill:#000000;stroke-width:0.0352778;fill-opacity:1"
       d="m 86.304856,158.09973 c -0.445714,-0.14726 -0.705555,-0.46205 -0.705555,-0.85476 0,-0.27166 0.06858,-0.45444 0.23188,-0.61798 0.194132,-0.19442 0.426169,-0.27651 1.209376,-0.42786 l 0.647507,-0.12513 -0.01359,-0.24056 c -0.01171,-0.20724 -0.02769,-0.25527 -0.115339,-0.34677 -0.142367,-0.14859 -0.295454,-0.18941 -0.64214,-0.17122 -0.223468,0.0117 -0.319362,0.0328 -0.390282,0.0857 -0.152564,0.1139 -0.228412,0.24116 -0.248157,0.41634 -0.01747,0.15502 -0.02388,0.16351 -0.110774,0.147 -0.05072,-0.01 -0.177489,-0.0281 -0.281698,-0.0409 l -0.189469,-0.0234 0.02172,-0.16368 c 0.01194,-0.09 0.06564,-0.25034 0.119328,-0.35628 0.167935,-0.33136 0.486269,-0.48656 1.066924,-0.52017 0.411535,-0.0238 0.668253,0.0254 0.920325,0.17632 0.151696,0.0908 0.209959,0.15431 0.295751,0.32216 l 0.10684,0.20904 0.01764,1.00804 0.01764,1.00805 0.167569,0.0108 0.16757,0.0108 v 0.22336 0.22337 l -0.157081,0.0236 c -0.384375,0.0576 -0.724864,-0.12514 -0.724864,-0.38911 0,-0.0399 -0.04983,-0.006 -0.151086,0.10268 -0.216987,0.233 -0.425745,0.31501 -0.836691,0.32866 -0.184327,0.006 -0.374827,-0.002 -0.423334,-0.018 z m 0.838591,-0.48162 c 0.379637,-0.11274 0.535219,-0.35036 0.536468,-0.81934 4.27e-4,-0.16038 -0.01424,-0.29104 -0.03266,-0.29104 -0.08189,0 -1.096662,0.2465 -1.210386,0.29402 -0.170103,0.0711 -0.255481,0.21008 -0.255481,0.41596 0,0.1864 0.09363,0.32057 0.282222,0.40439 0.142844,0.0635 0.458872,0.0616 0.679841,-0.004 z m 4.815368,0.47735 c -0.500824,-0.10603 -0.840627,-0.43936 -0.906289,-0.88904 l -0.02419,-0.16562 0.116523,-0.0178 c 0.37152,-0.0567 0.416344,-0.0539 0.417159,0.0261 0.0013,0.12617 0.123296,0.35526 0.24274,0.45577 0.158577,0.13343 0.337816,0.17717 0.659528,0.16094 0.447647,-0.0226 0.649178,-0.16651 0.649178,-0.46363 0,-0.25547 -0.11177,-0.31895 -0.908328,-0.51582 -0.417266,-0.10313 -0.731711,-0.22997 -0.868133,-0.3502 -0.188917,-0.16649 -0.270821,-0.53164 -0.185262,-0.82596 0.11072,-0.38086 0.472846,-0.61288 1.016342,-0.6512 0.677277,-0.0478 1.209933,0.23197 1.35187,0.70993 0.09286,0.31269 0.08791,0.31957 -0.257853,0.35869 l -0.208904,0.0236 -0.02276,-0.14235 c -0.04709,-0.29445 -0.335467,-0.49843 -0.706628,-0.49982 -0.404569,-0.002 -0.670843,0.15809 -0.670843,0.4021 0,0.23369 0.15203,0.31982 0.869961,0.4929 0.609752,0.14699 0.745359,0.19946 0.903425,0.34956 0.167823,0.15935 0.216281,0.29732 0.216281,0.61578 0,0.21609 -0.0172,0.30988 -0.07937,0.43278 -0.09676,0.19127 -0.320033,0.36594 -0.566,0.44279 -0.213611,0.0667 -0.821965,0.0963 -1.038444,0.0505 z m 3.285666,0.001 c -0.513789,-0.11021 -0.880572,-0.44522 -1.041826,-0.95156 -0.103424,-0.32476 -0.105368,-0.95042 -0.0039,-1.26332 0.0861,-0.26556 0.251121,-0.53139 0.42424,-0.68339 0.533481,-0.4684 1.482675,-0.45782 2.01428,0.0225 0.266848,0.24109 0.460996,0.7485 0.462082,1.20768 l 5.29e-4,0.22049 h -1.186832 -1.186829 l 0.02202,0.21068 c 0.05493,0.52553 0.358158,0.81237 0.858788,0.81237 0.451132,0 0.772961,-0.20154 0.863727,-0.54091 0.03834,-0.14333 0.05591,-0.16587 0.116646,-0.14955 0.03933,0.0106 0.163093,0.0194 0.275029,0.0197 l 0.203518,4.9e-4 -0.02133,0.097 c -0.08687,0.39504 -0.421516,0.79078 -0.784288,0.92749 -0.225736,0.0851 -0.771183,0.12284 -1.01582,0.0704 z m 1.26806,-2.02092 c -0.09593,-0.52111 -0.444285,-0.79642 -0.960808,-0.75934 -0.406326,0.0292 -0.658128,0.21581 -0.7617,0.56457 -0.100034,0.33685 -0.174907,0.30942 0.844914,0.30942 h 0.898701 z m 6.284679,2.00604 c -0.24176,-0.0588 -0.52658,-0.22003 -0.67093,-0.37981 -0.57434,-0.63572 -0.52561,-1.92257 0.0939,-2.47954 0.30902,-0.27783 0.67023,-0.39466 1.12253,-0.36308 0.81315,0.0568 1.29473,0.58169 1.36432,1.48708 l 0.0232,0.30162 -1.19511,0.009 -1.19511,0.009 0.0114,0.15723 c 0.0286,0.39523 0.26599,0.73104 0.57618,0.81492 0.0836,0.0226 0.26457,0.0339 0.40225,0.0252 0.41045,-0.0261 0.66306,-0.21456 0.75748,-0.5652 0.0321,-0.11936 0.0485,-0.13634 0.11457,-0.11863 0.0424,0.0114 0.1625,0.0209 0.2669,0.0211 l 0.18982,4.9e-4 -0.019,0.11686 c -0.0527,0.32462 -0.33129,0.69656 -0.6305,0.84171 -0.3454,0.16756 -0.82469,0.21558 -1.21185,0.12143 z m 1.32291,-1.95554 c 0,-0.17829 -0.11773,-0.44349 -0.26008,-0.58584 -0.31066,-0.31067 -0.95349,-0.3119 -1.26297,-0.002 -0.12366,0.12366 -0.24083,0.40013 -0.24083,0.56826 v 0.0841 h 0.88194 c 0.82908,0 0.88194,-0.004 0.88194,-0.0642 z m 19.44013,1.94955 c -0.49227,-0.10674 -0.80948,-0.34451 -1.00215,-0.75117 l -0.11117,-0.23464 -0.0101,-1.70216 -0.0101,-1.70215 h 0.28351 0.2835 v 1.56358 c 0,1.77544 0.002,1.79177 0.26456,2.05423 0.21247,0.21247 0.48534,0.31049 0.86433,0.31049 0.51198,0 0.86106,-0.1896 1.04727,-0.56881 l 0.0993,-0.20213 0.0117,-1.57868 0.0116,-1.57868 h 0.27939 0.27938 l -7e-4,1.49049 c -3.9e-4,0.81977 -0.0167,1.60112 -0.0362,1.73633 -0.11518,0.79701 -0.7127,1.22165 -1.70932,1.21476 -0.17463,-0.001 -0.41975,-0.0244 -0.54473,-0.0515 z m 11.76307,0.005 c -0.27339,-0.0673 -0.44297,-0.1618 -0.63717,-0.35501 -0.32593,-0.32426 -0.46607,-0.7742 -0.42825,-1.37494 0.0581,-0.92392 0.6308,-1.50145 1.48875,-1.50145 0.87348,0 1.40299,0.54342 1.48623,1.52529 l 0.0231,0.27293 -1.19565,0.009 -1.19566,0.009 0.0122,0.15856 c 0.0271,0.35261 0.16597,0.60788 0.40548,0.74511 0.12641,0.0724 0.19336,0.0841 0.48194,0.0841 0.29199,0 0.3554,-0.0113 0.49252,-0.0882 0.17735,-0.0994 0.30111,-0.26165 0.35653,-0.46745 0.0321,-0.11936 0.0485,-0.13634 0.11457,-0.11863 0.0424,0.0114 0.16219,0.0209 0.26621,0.0211 l 0.18913,4.9e-4 -0.0245,0.1323 c -0.0352,0.1897 -0.22148,0.52296 -0.3606,0.64512 -0.3454,0.30327 -0.95925,0.42898 -1.47479,0.30204 z m 1.32291,-1.96017 c 0,-0.11728 -0.10849,-0.40083 -0.19969,-0.5219 -0.26571,-0.35273 -1.00741,-0.38654 -1.33317,-0.0608 -0.12008,0.12008 -0.23102,0.39392 -0.23102,0.57021 v 0.0818 h 0.88194 c 0.8532,0 0.88194,-0.002 0.88194,-0.0693 z m 4.03119,1.97473 c -0.50184,-0.10683 -0.83689,-0.43437 -0.88094,-0.86118 -0.0226,-0.21904 -0.0222,-0.21935 0.31725,-0.24062 0.15555,-0.01 0.17056,-0.004 0.18848,0.078 0.0421,0.19158 0.0593,0.23361 0.13952,0.34071 0.13644,0.18222 0.34177,0.2595 0.6871,0.2586 0.46008,-0.001 0.67733,-0.12975 0.72599,-0.42959 0.0155,-0.0955 7.1e-4,-0.1427 -0.0714,-0.22846 -0.1142,-0.13572 -0.17377,-0.15946 -0.78033,-0.31105 -0.91867,-0.22958 -1.14789,-0.423 -1.14575,-0.96684 0.001,-0.36051 0.16476,-0.59051 0.54603,-0.76886 0.19344,-0.0905 0.2466,-0.099 0.61736,-0.099 0.48023,0 0.69931,0.0646 0.94132,0.27764 0.17642,0.15528 0.28262,0.34117 0.32523,0.56922 0.0335,0.17907 0.0387,0.17517 -0.28611,0.21326 l -0.20136,0.0236 -0.042,-0.16666 c -0.0794,-0.31515 -0.33757,-0.4769 -0.75884,-0.47532 -0.35539,10e-4 -0.61327,0.16845 -0.61327,0.39744 0,0.24403 0.10165,0.30277 0.84408,0.48777 0.69109,0.1722 0.89834,0.2727 1.04211,0.50533 0.0967,0.15642 0.10683,0.2007 0.10516,0.45807 -0.003,0.4511 -0.18109,0.70699 -0.60381,0.86717 -0.23148,0.0877 -0.83357,0.12662 -1.0958,0.0708 z m 6.46395,-0.014 c -0.24175,-0.0588 -0.52658,-0.22002 -0.67093,-0.3798 -0.57433,-0.63572 -0.52561,-1.92257 0.0939,-2.47954 0.30902,-0.27783 0.67022,-0.39466 1.12252,-0.36308 0.81315,0.0568 1.29473,0.58169 1.36432,1.48708 l 0.0232,0.30162 -1.19511,0.009 -1.19511,0.009 0.0114,0.15723 c 0.0286,0.39523 0.26599,0.73104 0.57617,0.81492 0.0836,0.0226 0.26458,0.0339 0.40225,0.0252 0.41046,-0.0261 0.66306,-0.21456 0.75748,-0.56521 0.0321,-0.11935 0.0485,-0.13633 0.11458,-0.11862 0.0424,0.0114 0.16249,0.0209 0.26689,0.0212 l 0.18983,4.9e-4 -0.019,0.11685 c -0.0527,0.32462 -0.3313,0.69657 -0.63051,0.84172 -0.34539,0.16755 -0.82468,0.21558 -1.21185,0.12142 z m 1.32292,-1.95553 c 0,-0.17829 -0.11774,-0.4435 -0.26008,-0.58584 -0.31067,-0.31067 -0.95349,-0.3119 -1.26297,-0.002 -0.12367,0.12367 -0.24084,0.40014 -0.24084,0.56827 v 0.0841 h 0.88195 c 0.82908,0 0.88194,-0.004 0.88194,-0.0642 z m -3.36588,1.9297 c -0.20392,-0.0478 -0.35771,-0.15654 -0.43154,-0.30506 -0.0588,-0.11831 -0.0666,-0.24416 -0.0762,-1.23417 l -0.0107,-1.10243 h -0.22745 -0.22745 v -0.24694 -0.24695 h 0.22931 0.2293 v -0.42333 -0.42334 h 0.28223 0.28222 v 0.42334 0.42333 h 0.3175 0.3175 v 0.24695 0.24694 h -0.3175 -0.3175 v 1.01759 c 0,1.19221 -0.0184,1.13435 0.36026,1.13435 0.26185,0 0.27335,0.0135 0.27426,0.32171 4.9e-4,0.16101 -0.001,0.16321 -0.13181,0.18482 -0.17605,0.0291 -0.38371,0.0228 -0.55248,-0.0168 z m -91.566619,-0.0223 c 0,-0.0146 0.378885,-0.99485 0.841967,-2.1784 l 0.841968,-2.15192 0.31338,-0.01 0.31338,-0.01 0.573094,1.47393 c 0.315201,0.81067 0.698539,1.7954 0.85186,2.18831 l 0.278766,0.71437 -0.305054,-3.8e-4 -0.305055,-3.9e-4 -0.242153,-0.65224 -0.242153,-0.65223 H 55.52724 54.602679 l -0.24043,0.65264 -0.24043,0.65264 H 53.82681 c -0.162255,-4e-5 -0.295009,-0.012 -0.295009,-0.0265 z m 2.716389,-1.8071 c 0,-0.0189 -0.140783,-0.41183 -0.312851,-0.87312 -0.172068,-0.46129 -0.333204,-0.90174 -0.35808,-0.97878 l -0.04523,-0.14007 -0.06418,0.17535 c -0.459717,1.25602 -0.66605,1.82504 -0.66605,1.8368 0,0.008 0.325438,0.0142 0.723195,0.0142 0.446525,0 0.723194,-0.0132 0.723194,-0.0344 z m 1.728611,0.26372 v -1.56986 h 0.282222 0.282223 v 1.56986 1.56986 h -0.282223 -0.282222 z m 1.569751,0.76074 c 0.320207,-0.44503 0.582194,-0.81706 0.582194,-0.82674 0,-0.01 -0.22809,-0.33425 -0.506866,-0.72127 -0.278777,-0.38703 -0.517838,-0.72144 -0.531249,-0.74314 -0.01729,-0.028 0.06597,-0.039 0.28638,-0.038 l 0.310762,0.001 0.305602,0.43074 c 0.16808,0.23691 0.334768,0.48225 0.370417,0.54518 0.03565,0.0629 0.07275,0.1137 0.08245,0.11281 0.0097,-8.8e-4 0.184326,-0.24657 0.388055,-0.54596 l 0.370417,-0.54434 0.310762,-6.3e-4 c 0.239447,-5e-4 0.304638,0.01 0.284073,0.0435 -0.01468,0.0243 -0.255411,0.35771 -0.534958,0.74101 -0.279546,0.38329 -0.500547,0.71702 -0.491113,0.7416 0.0094,0.0246 0.265103,0.38787 0.568153,0.80729 0.30305,0.41943 0.550999,0.7723 0.550999,0.78416 0,0.0119 -0.13339,0.0216 -0.296423,0.0216 h -0.296423 l -0.315486,-0.4498 c -0.173518,-0.24738 -0.359136,-0.52519 -0.412485,-0.61736 -0.05335,-0.0922 -0.107396,-0.16728 -0.120104,-0.16693 -0.01271,3.5e-4 -0.07679,0.0837 -0.142405,0.18521 -0.06561,0.10151 -0.255093,0.37904 -0.421065,0.61672 l -0.301766,0.43216 h -0.311059 -0.311059 l 0.582193,-0.80913 z m 20.972749,-1.37922 v -2.18834 l 0.411017,0.01 0.411018,0.01 0.417933,1.11125 c 0.331726,0.88203 0.689966,1.85571 0.934526,2.54 0.0104,0.0291 0.1188,-0.23284 0.240884,-0.58209 0.122085,-0.34925 0.427767,-1.18268 0.679294,-1.85208 l 0.457322,-1.21708 0.411225,-0.01 0.411225,-0.01 v 2.18834 2.18834 h -0.287546 -0.287547 l 0.01901,-1.79034 0.01901,-1.79035 -0.165195,0.45861 c -0.09086,0.25224 -0.394672,1.05808 -0.675143,1.79076 l -0.509949,1.33214 -0.299454,-0.009 -0.299455,-0.009 -0.58249,-1.52033 c -0.320369,-0.83618 -0.623833,-1.63787 -0.674364,-1.78152 l -0.09187,-0.2612 0.0175,1.79035 0.0175,1.79034 H 80.806531 80.51931 Z m 8.607778,0.61848 v -1.56986 h 0.282222 0.282222 v 0.22931 c 0,0.12611 0.01245,0.2293 0.02767,0.2293 0.01522,0 0.05478,-0.0459 0.08791,-0.10197 0.124714,-0.21112 0.605299,-0.42719 0.950164,-0.42719 h 0.133699 v 0.26005 0.26005 l -0.279883,0.0162 c -0.472849,0.0274 -0.703587,0.19467 -0.8373,0.6071 -0.04619,0.14247 -0.06138,0.37426 -0.07361,1.12319 l -0.01541,0.94368 h -0.278839 -0.278839 z m 8.607777,0 v -1.56986 h 0.282222 0.282223 v 1.56986 1.56986 h -0.282223 -0.282222 z m 1.375834,-0.61736 v -2.18722 h 0.282222 0.282222 v 2.18722 2.18722 H 99.392912 99.11069 Z m 1.41111,0 v -2.18722 h 0.28222 0.28223 v 2.18722 2.18722 h -0.28223 -0.28222 z m 26.10556,0.61736 v -1.56986 h 0.28222 0.28222 v 0.21663 0.21664 l 0.14151,-0.16077 c 0.22646,-0.25726 0.40424,-0.32552 0.84627,-0.32489 0.30927,4.3e-4 0.39921,0.0137 0.54486,0.0804 0.27012,0.12372 0.39354,0.23604 0.50191,0.45673 l 0.0998,0.20314 0.0116,1.2259 0.0116,1.2259 h -0.30265 -0.30266 l -7.7e-4,-1.12007 c -7.1e-4,-1.01598 -0.007,-1.1335 -0.0665,-1.26467 -0.16814,-0.37023 -0.71481,-0.46283 -1.14011,-0.19311 -0.29993,0.1902 -0.34489,0.40501 -0.34489,1.64781 v 0.93004 h -0.28222 -0.28222 z m 3.4925,0 v -1.56986 h 0.28222 0.28222 v 1.56986 1.56986 h -0.28222 -0.28222 z m 1.61836,-5.6e-4 -0.58649,-1.56929 h 0.30427 0.30427 l 0.34165,0.99651 c 0.18791,0.54809 0.37841,1.1194 0.42334,1.26959 0.0449,0.15019 0.0911,0.27322 0.10255,0.2734 0.0115,3.5e-4 0.0502,-0.0989 0.0861,-0.22015 0.0589,-0.19943 0.47825,-1.42119 0.70826,-2.06375 l 0.0916,-0.25577 h 0.30006 c 0.2715,0 0.29774,0.006 0.27575,0.0617 -0.0134,0.034 -0.2617,0.69673 -0.55185,1.47285 -0.29014,0.77611 -0.54477,1.45476 -0.56583,1.50812 -0.0377,0.0954 -0.0432,0.097 -0.34269,0.0964 l -0.3044,-5.6e-4 -0.5865,-1.56929 z m 6.14275,5.6e-4 v -1.56986 h 0.28222 0.28222 v 0.23427 0.23428 l 0.13906,-0.15798 c 0.17474,-0.19852 0.47933,-0.34036 0.79397,-0.36974 l 0.23114,-0.0216 v 0.26465 0.26464 l -0.28079,0.0192 c -0.32314,0.0221 -0.51835,0.1112 -0.67587,0.30833 -0.17565,0.21981 -0.20751,0.44302 -0.20751,1.4538 v 0.90981 h -0.28222 -0.28222 z m 5.15055,0 v -1.56986 h 0.28222 0.28223 v 1.56986 1.56986 h -0.28223 -0.28222 z m 4.27485,-2.05493 c 0.007,-0.0145 0.0954,-0.18918 0.19729,-0.38805 l 0.18517,-0.3616 h 0.32023 0.32023 l -0.11168,0.14993 c -0.0614,0.0825 -0.18583,0.25658 -0.27645,0.38693 l -0.16478,0.23701 -0.24106,0.001 c -0.13259,6e-4 -0.23561,-0.0108 -0.22895,-0.0253 z M 57.976801,154.0202 v -0.33514 h 0.282222 0.282223 v 0.33514 0.33514 h -0.282223 -0.282222 z m 39.758055,0 v -0.33514 h 0.282222 0.282223 v 0.33514 0.33514 h -0.282223 -0.282222 z m 32.385004,0 v -0.33514 h 0.28222 0.28222 v 0.33514 0.33514 h -0.28222 -0.28222 z m 12.91166,0 v -0.33514 h 0.28222 0.28223 v 0.33514 0.33514 h -0.28223 -0.28222 z m -82.81458,-2.88039 c -3.047228,-0.26632 -5.565423,-1.80766 -6.650178,-4.07047 -0.523413,-1.09185 -0.729403,-2.38225 -0.597184,-3.741 0.315383,-3.24103 2.403471,-5.22133 6.612362,-6.27105 0.752884,-0.18777 1.108194,-0.25909 5.926667,-1.18955 2.037291,-0.39341 3.718843,-0.72811 3.736782,-0.74378 0.04564,-0.0399 -0.03632,-2.07504 -0.1017,-2.52519 -0.122008,-0.84004 -0.314334,-1.34121 -0.731945,-1.90733 -0.598562,-0.81141 -1.653466,-1.3041 -3.273554,-1.52889 -0.438602,-0.0609 -2.007027,-0.0607 -2.522361,3.2e-4 -3.088422,0.36539 -4.404205,1.72961 -4.555727,4.72342 -0.01682,0.33239 -0.03607,0.46654 -0.06693,0.46654 -0.02382,0 -0.972797,-0.127 -2.108832,-0.28222 -1.136036,-0.15522 -2.074537,-0.28222 -2.085559,-0.28222 -0.06197,0 0.0043,-0.81478 0.124602,-1.53098 0.154691,-0.92126 0.382354,-1.64789 0.752731,-2.40249 0.623759,-1.27083 1.447033,-2.10576 2.775355,-2.81464 1.809991,-0.96594 4.350397,-1.45654 7.192828,-1.38907 1.599695,0.038 2.760773,0.21361 3.915833,0.59234 2.672872,0.87639 4.307098,2.76349 4.777187,5.51637 0.13862,0.81177 0.137548,0.75962 0.159267,7.74347 0.02025,6.51024 0.02424,6.83523 0.08633,7.02028 0.17761,0.52936 0.492331,0.65935 1.51239,0.62467 0.376153,-0.0128 0.682483,-0.0436 0.8908,-0.0897 0.174625,-0.0386 0.321072,-0.0667 0.325438,-0.0624 0.02177,0.0213 0.107557,3.57003 0.08679,3.59022 -0.0448,0.0436 -0.870889,0.13252 -1.614308,0.17386 -0.828408,0.0461 -1.708605,0.0241 -2.185638,-0.0545 -1.803087,-0.29706 -2.865107,-1.32918 -3.19621,-3.10623 -0.03977,-0.21343 -0.07972,-0.42621 -0.08879,-0.47285 -0.0137,-0.0704 -0.05312,-0.021 -0.232981,0.29204 -1.026175,1.78617 -2.703979,2.95251 -4.975301,3.45862 -1.138485,0.25368 -2.746154,0.36216 -3.888166,0.26236 z m 3.351389,-3.59068 c 3.475155,-0.52216 5.405675,-2.41779 5.660701,-5.55841 0.04178,-0.51455 0.05045,-3.53402 0.0102,-3.55586 -0.04071,-0.0221 -7.765165,1.67729 -8.301973,1.82644 -2.19804,0.61074 -3.139327,1.4128 -3.442266,2.93312 -0.0924,0.46371 -0.08396,1.34622 0.0164,1.71501 0.154614,0.56817 0.339125,0.9235 0.700169,1.34839 0.538765,0.63404 1.493606,1.13492 2.481629,1.30178 0.184326,0.0311 0.374826,0.0637 0.423333,0.0722 0.04851,0.009 0.508882,0.0102 1.023056,0.004 0.721148,-0.009 1.047766,-0.0291 1.42875,-0.0863 z m 70.855411,3.59509 c -3.44307,-0.19505 -6.08178,-1.05152 -8.14916,-2.64505 -0.46983,-0.36214 -1.30419,-1.21116 -1.66649,-1.69577 -1.25008,-1.67208 -1.93089,-3.61642 -2.14229,-6.1182 -0.0233,-0.27526 -0.0359,-4.58478 -0.0361,-12.32077 l -3.6e-4,-11.89743 h 2.20486 2.20486 l 3.6e-4,11.50938 c 3.5e-4,7.3048 0.0132,11.6898 0.0355,12.00326 0.25454,3.56904 2.43212,6.0792 6.04248,6.96538 0.90962,0.22327 1.76201,0.31937 2.82931,0.31898 2.36118,-8.6e-4 4.4547,-0.63219 6.03741,-1.82067 0.35639,-0.26762 0.94836,-0.8377 1.2214,-1.17623 0.85394,-1.05879 1.36796,-2.32526 1.58263,-3.8994 0.0333,-0.24402 0.0462,-3.04659 0.0558,-12.1091 l 0.0125,-11.7916 h 2.20376 2.20377 v 11.80924 c 0,7.56936 -0.0128,11.98022 -0.0355,12.28548 -0.2207,2.96556 -1.1696,5.29361 -2.87425,7.05178 -1.98577,2.04813 -4.81956,3.19674 -8.62597,3.49636 -0.65975,0.0519 -2.4454,0.0717 -3.10444,0.0344 z M 80.519301,138.41023 V 126.2394 h 2.169583 2.169583 l 0.002,1.80798 0.002,1.80799 0.133376,-0.28222 c 0.812286,-1.71879 2.577016,-3.06345 4.746021,-3.61629 1.523933,-0.38843 3.331108,-0.4197 4.853277,-0.084 1.658454,0.36578 3.146654,1.23158 4.125866,2.40034 0.527551,0.62967 1.010187,1.43895 1.307573,2.19254 0.0636,0.16109 0.12635,0.28015 0.13952,0.26458 0.0131,-0.0156 0.0681,-0.13149 0.12216,-0.25761 0.48201,-1.1251 1.40482,-2.34371 2.3618,-3.11887 1.47514,-1.19486 3.14956,-1.71419 5.52696,-1.71419 4.10138,0 6.78488,1.7536 7.88182,5.15056 0.25195,0.78025 0.42726,1.71683 0.51044,2.72713 0.0247,0.29985 0.0372,3.24418 0.0372,8.75771 v 8.30599 h -2.23901 -2.23901 l -0.0111,-8.24618 c -0.0103,-7.65704 -0.0156,-8.27987 -0.0737,-8.71774 -0.1213,-0.91404 -0.3261,-1.54542 -0.688,-2.12105 -0.5066,-0.80579 -1.20133,-1.42642 -1.98019,-1.76899 -0.62057,-0.27294 -1.20496,-0.39765 -2.14682,-0.45811 -1.80655,-0.11598 -3.1292,0.30001 -4.31735,1.35787 -1.32702,1.18148 -1.9757,2.79481 -2.1437,5.33156 -0.0213,0.32153 -0.0353,3.29421 -0.0356,7.57591 l -5.4e-4,7.04673 h -2.238745 -2.238742 l -0.01304,-8.2109 c -0.01161,-7.30655 -0.01934,-8.26141 -0.07022,-8.66951 -0.160931,-1.29082 -0.466489,-2.02682 -1.189415,-2.86495 -0.722376,-0.8375 -1.717548,-1.33609 -3.006916,-1.5065 -1.744154,-0.23051 -3.143529,0.0302 -4.295711,0.80018 -1.699523,1.13583 -2.571111,2.93132 -2.785922,5.73908 -0.0232,0.30318 -0.0363,3.04467 -0.0363,7.59354 v 7.11906 h -2.169583 -2.169583 z"
       id="path179"
       inkscape:export-filename="amu_white.png"
       inkscape:export-xdpi="96"
       inkscape:export-ydpi="96" /><text
       xml:space="preserve"
       style="font-size:3.175px;fill:#000000;fill-opacity:1;stroke-width:0.264583"
       x="54.829041"
       y="71.482933"
       id="text991"
       inkscape:export-filename="lp_sig.png"
       inkscape:export-xdpi="96"
       inkscape:export-ydpi="96"><tspan
         sodipodi:role="line"
         style="font-style:normal;font-variant:normal;font-weight:normal;font-stretch:normal;font-size:5.64444px;font-family:'Liberation Mono';-inkscape-font-specification:'Liberation Mono';display:inline;fill:#000000;fill-opacity:1;stroke-width:0.264583"
         x="54.829041"
         y="71.482933"
         id="tspan1045"><tspan
           dy="0"
           id="tspan1098"
           style="font-style:normal;font-variant:normal;font-weight:normal;font-stretch:normal;font-size:19.7556px;font-family:'Liberation Mono';-inkscape-font-specification:'Liberation Mono';display:inline;fill:#000000;fill-opacity:1;stroke-width:0.264583">LP-SIG</tspan></tspan><tspan
         sodipodi:role="line"
         style="display:inline;fill:#000000;fill-opacity:1;stroke-width:0.264583"
         x="54.829041"
         y="81.408478"
         id="tspan993"
         inkscape:label="tspan993" /></text><text
       xml:space="preserve"
       style="font-style:normal;font-variant:normal;font-weight:normal;font-stretch:normal;font-size:5.64444px;font-family:'Liberation Mono';-inkscape-font-specification:'Liberation Mono';fill:#000000;fill-opacity:1;stroke-width:0.264583"
       x="56.966831"
       y="78.961716"
       id="text1096"><tspan
         sodipodi:role="line"
         id="tspan1094"
         style="stroke-width:0.264583;fill:#000000;fill-opacity:1"
         x="56.966831"
         y="78.961716">24/25</tspan></text></g></svg>
